{"title":"Legend of Guardians CAM XViD-MAGNET","uid":5857561,"size":1081612338,"categoryP":"video","categoryS":"movies","magnet":"?xt=urn:btih:51be4c02cba753c8c0e945bf3e3f15401f84c97a&amp;dn=Legend+of+Guardians+CAM+XViD-MAGNET&amp;tr=udp%3A%2F%2Ftracker.openbittorrent.com%3A80&amp;tr=udp%3A%2F%2Fopen.demonii.com%3A1337&amp;tr=udp%3A%2F%2Ftracker.coppersurfer.tk%3A6969&amp;tr=udp%3A%2F%2Fexodus.desync.com%3A6969","seeders":0,"leechers":0,"uploader":"IwannaFan2","files":2,"time":1285864407,"description":"Filename:\nLegend of Guardians CAM XViD-MAGNET\n\nLegend of the Guardians The Owls of Ga'Hoole\n\nMAGNET GRoUP PROUDLY PRESENTS :\n\nAre you interested in joining group MAGNET? We are looking for:\n1. Unreleased Cams, TS, Cammers\n2. Audio, directline, IR\n3. pre retail / retail dvds\n4. unreleased television\n\ngot something else you think is useful? let us know!\n\n&lt;a class=&quot;__cf_email__&quot; href=&quot;/cdn-cgi/l/email-protection&quot; data-cfemail=&quot;7e131f19101b0a190c110b0e3e1217081b501d1113&quot;&gt;[email&amp;#160;protected]&lt;/a&gt;&lt;script cf-hash='f9e31' type=&quot;text/javascript&quot;&gt;\n/* &lt;![CDATA[ */!function(){try{var t=&quot;currentScript&quot;in document?document.currentScript:function(){for(var t=document.getElementsByTagName(&quot;script&quot;),e=t.length;e--;)if(t[e].getAttribute(&quot;cf-hash&quot;))return t[e]}();if(t&amp;&amp;t.previousSibling){var e,r,n,i,c=t.previousSibling,a=c.getAttribute(&quot;data-cfemail&quot;);if(a){for(e=&quot;&quot;,r=parseInt(a.substr(0,2),16),n=2;a.length-n;n+=2)i=parseInt(a.substr(n,2),16)^r,e+=String.fromCharCode(i);e=document.createTextNode(e),c.parentNode.replaceChild(e,c)}}}catch(u){}}();/* ]]&gt; */&lt;/script&gt;\n\nSuppliers recieve special access and privlage$\n\n-The MAGNET\n\nGeneral\nComplete name                    : Legend.of.Guardians.CAM.XViD-MAGNET.avi\nFormat                           : AVI\nFormat/Info                      : Audio Video Interleave\nFile size                        : 1.01 GiB\nDuration                         : 1h 27mn\nOverall bit rate                 : 1 639 Kbps\nSource                             :Cristall = Thanks\n\nIMDB                                : http://www.imdb.com/title/tt1219342/\nAudio                                : English\n\nVideo\nID                               : 0\nFormat                           : MPEG-4 Visual\nFormat profile                   : Advanced Simple@L5\nFormat settings, BVOP            : Yes\nFormat settings, QPel            : No\nFormat settings, GMC             : No warppoints\nFormat settings, Matrix          : Default (H.263)\nCodec ID                         : XVID\nCodec ID/Hint                    : XviD\nDuration                         : 1h 27mn\nBit rate                         : 1 500 Kbps\nWidth                            : 720 pixels\nHeight                           : 304 pixels\nDisplay aspect ratio             : 2.35:1\nFrame rate                       : 29.970 fps\nColor space                      : YUV\nChroma subsampling               : 4:2:0\nBit depth                        : 8 bits\nScan type                        : Progressive\nBits/(Pixel*Frame)               : 0.229\nStream size                      : 944 MiB (91%)\nWriting library                  : XviD 1.2.1 (UTC 2008-12-04)\n\nAudio\n\nID                               : 1\nFormat                           : MPEG Audio\nFormat version                   : Version 1\nFormat profile                   : Layer 2\nCodec ID                         : 50\nDuration                         : 1h 27mn\nBit rate mode                    : Constant\nBit rate                         : 128 Kbps\nChannel(s)                       : 2 channels\nSampling rate                    : 48.0 KHz\nBit depth                        : 16 bits\nStream size                      : 80.5 MiB (8%)\nAlignment                        : Aligned on interleaves\nInterleave, duration             : 33 ms (1.00 video frame)","torrent":{"xt":"urn:btih:51be4c02cba753c8c0e945bf3e3f15401f84c97a","amp;dn":"Legend+of+Guardians+CAM+XViD-MAGNET","amp;tr":["udp%3A%2F%2Ftracker.openbittorrent.com%3A80","udp%3A%2F%2Fopen.demonii.com%3A1337","udp%3A%2F%2Ftracker.coppersurfer.tk%3A6969","udp%3A%2F%2Fexodus.desync.com%3A6969"],"infoHash":"51be4c02cba753c8c0e945bf3e3f15401f84c97a","infoHashBuffer":{"type":"Buffer","data":[81,190,76,2,203,167,83,200,192,233,69,191,62,63,21,64,31,132,201,122]},"announce":[],"urlList":[]}}